<?xml version="1.0" standalone="no"?>
<!DOCTYPE svg PUBLIC "-//W3C//DTD SVG 20010904//EN"
 "http://www.w3.org/TR/2001/REC-SVG-20010904/DTD/svg10.dtd">
<svg version="1.0" xmlns="http://www.w3.org/2000/svg"
 width="300.000000pt" height="300.000000pt" viewBox="0 0 300.000000 300.000000"
 preserveAspectRatio="xMidYMid meet">
<metadata>
Created by potrace 1.11, written by Peter Selinger 2001-2013
</metadata>
<g transform="translate(0.000000,300.000000) scale(0.100000,-0.100000)"
fill="#000000" stroke="none">
<path d="M1317 2936 c-40 -15 -59 -28 -95 -64 -42 -44 -55 -83 -62 -192 -8
-114 -19 -154 -46 -164 -36 -14 6 -23 89 -19 61 2 90 -1 116 -13 51 -24 137
-22 188 4 153 79 185 275 65 392 -69 67 -165 88 -255 56z"/>
<path d="M1325 2399 c-112 -14 -159 -69 -220 -256 -23 -67 -84 -328 -99 -418
-2 -16 -11 -66 -20 -110 -9 -44 -18 -98 -22 -120 -3 -22 -8 -43 -10 -47 -2 -3
-6 -37 -9 -75 -7 -81 5 -102 62 -110 56 -7 76 17 101 124 12 48 31 129 43 178
11 50 22 95 23 100 25 127 98 400 81 305 -2 -14 -7 -68 -11 -120 -3 -52 -7
-109 -9 -125 -1 -17 -5 -71 -9 -120 -4 -50 -9 -106 -11 -125 -2 -19 -7 -80
-10 -135 -3 -55 -8 -116 -10 -135 -2 -19 -7 -70 -10 -113 -7 -87 -15 -79 83
-80 l42 0 1 -61 c1 -33 2 -79 4 -101 1 -22 6 -98 9 -170 4 -71 9 -157 11 -190
3 -33 7 -114 11 -180 13 -257 10 -230 30 -249 19 -19 54 -21 77 -3 19 13 22
36 31 217 9 164 16 294 21 380 8 130 18 324 17 341 0 14 18 16 150 15 86 -1
152 3 156 9 3 5 7 74 8 153 l2 144 33 20 c172 102 238 316 155 502 -44 98
-155 190 -253 211 -23 4 -33 13 -38 33 -13 56 -86 189 -125 230 -71 75 -154
98 -285 81z m441 -613 l22 -25 18 21 c30 32 60 40 98 24 35 -15 58 -58 51 -96
-8 -43 -67 -110 -133 -151 l-33 -21 -38 25 c-103 69 -148 150 -114 208 31 53
91 60 129 15z"/>
</g>
</svg>
